<svg xmlns="http://www.w3.org/2000/svg" width="39" height="32" viewBox="0 0 39 32" fill="none"><path d="M8.76992 4.15039L8.20352 4.58496C7.89102 4.17806 7.51504 3.87044 7.07559 3.66211C6.63939 3.45052 6.15925 3.34473 5.63516 3.34473C5.06224 3.34473 4.53164 3.48307 4.04336 3.75977C3.55508 4.0332 3.17585 4.40267 2.90566 4.86816C2.63874 5.3304 2.50527 5.85124 2.50527 6.43066C2.50527 7.30632 2.80475 8.03711 3.40371 8.62305C4.00592 9.20898 4.76439 9.50195 5.6791 9.50195C6.68496 9.50195 7.52643 9.10807 8.20352 8.32031L8.76992 8.75C8.41185 9.20573 7.96426 9.55892 7.42715 9.80957C6.89329 10.057 6.29596 10.1807 5.63516 10.1807C4.37865 10.1807 3.38744 9.76237 2.66152 8.92578C2.0528 8.2194 1.74844 7.36654 1.74844 6.36719C1.74844 5.31576 2.11628 4.43197 2.85195 3.71582C3.59089 2.99642 4.51536 2.63672 5.62539 2.63672C6.29596 2.63672 6.90143 2.77018 7.4418 3.03711C7.98216 3.30078 8.42487 3.67188 8.76992 4.15039ZM11.4152 2.81738H12.1379V9.30664H14.8967V10H11.4152V2.81738ZM20.6572 2.63672C21.7445 2.63672 22.6543 2.99967 23.3867 3.72559C24.1191 4.4515 24.4854 5.34505 24.4854 6.40625C24.4854 7.45768 24.1191 8.34961 23.3867 9.08203C22.6576 9.81445 21.7673 10.1807 20.7158 10.1807C19.6514 10.1807 18.7529 9.81608 18.0205 9.08691C17.2881 8.35775 16.9219 7.47559 16.9219 6.44043C16.9219 5.75033 17.0879 5.11068 17.4199 4.52148C17.7552 3.93229 18.2109 3.47168 18.7871 3.13965C19.3633 2.80436 19.9867 2.63672 20.6572 2.63672ZM20.6914 3.33984C20.1608 3.33984 19.6579 3.47819 19.1826 3.75488C18.7074 4.03158 18.3363 4.4043 18.0693 4.87305C17.8024 5.3418 17.6689 5.86426 17.6689 6.44043C17.6689 7.29329 17.9635 8.01432 18.5527 8.60352C19.1452 9.18945 19.8581 9.48242 20.6914 9.48242C21.248 9.48242 21.7624 9.34733 22.2344 9.07715C22.7096 8.80697 23.0791 8.4375 23.3428 7.96875C23.6097 7.5 23.7432 6.97917 23.7432 6.40625C23.7432 5.83659 23.6097 5.32227 23.3428 4.86328C23.0791 4.40104 22.7064 4.03158 22.2246 3.75488C21.7428 3.47819 21.2318 3.33984 20.6914 3.33984ZM26.3836 8.66211L26.9939 8.2959C27.4236 9.08691 27.9201 9.48242 28.4832 9.48242C28.7241 9.48242 28.9503 9.42708 29.1619 9.31641C29.3735 9.20247 29.5346 9.05111 29.6453 8.8623C29.756 8.6735 29.8113 8.47331 29.8113 8.26172C29.8113 8.02083 29.7299 7.78483 29.5672 7.55371C29.3426 7.2347 28.9324 6.85059 28.3367 6.40137C27.7378 5.94889 27.365 5.62174 27.2186 5.41992C26.9646 5.08138 26.8377 4.71517 26.8377 4.32129C26.8377 4.00879 26.9126 3.72396 27.0623 3.4668C27.212 3.20964 27.422 3.00781 27.6922 2.86133C27.9656 2.71159 28.2618 2.63672 28.5809 2.63672C28.9194 2.63672 29.2352 2.72135 29.5281 2.89062C29.8243 3.05664 30.1368 3.36426 30.4656 3.81348L29.8797 4.25781C29.6095 3.89974 29.3784 3.66374 29.1863 3.5498C28.9975 3.43587 28.7908 3.37891 28.5662 3.37891C28.2765 3.37891 28.0389 3.4668 27.8533 3.64258C27.671 3.81836 27.5799 4.03483 27.5799 4.29199C27.5799 4.44824 27.6124 4.59961 27.6775 4.74609C27.7426 4.89258 27.8615 5.05208 28.034 5.22461C28.1284 5.31576 28.4376 5.55501 28.9617 5.94238C29.5835 6.40137 30.0099 6.8099 30.241 7.16797C30.4721 7.52604 30.5877 7.88574 30.5877 8.24707C30.5877 8.7679 30.3891 9.22038 29.992 9.60449C29.5981 9.98861 29.118 10.1807 28.5516 10.1807C28.1154 10.1807 27.7199 10.0651 27.365 9.83398C27.0102 9.59961 26.6831 9.20898 26.3836 8.66211ZM33.3111 2.81738H37.4273V3.52539H34.0289V5.77148H37.398V6.47461H34.0289V9.29199H37.398V10H33.3111V2.81738Z" fill="#555555"></path><path d="M28 15L12 31M12 15L28 31" stroke="#555555" stroke-linecap="round" stroke-linejoin="round"></path></svg>