<svg xmlns="http://www.w3.org/2000/svg" width="39" height="32" viewBox="0 0 33 28" fill="none"><path d="M32.4528 17.3633H0V18.5049H32.4528V17.3633Z" fill="#818181"></path><path d="M32.4528 26.5049H0V27.6465H32.4528V26.5049Z" fill="#818181"></path><path d="M8.37077 3.63379V11.4658H7.53477V5.64679L4.99377 11.4658H4.35577L1.79277 5.69079L1.80377 11.4658H0.967773V3.63379H1.71577L4.68577 10.3878L7.62277 3.63379H8.37077Z" fill="#818181"></path><path d="M10.1927 3.63379H15.1427V4.38179H11.0837V7.10979H14.9227V7.86879H11.0837V10.7178H15.1427V11.4658H10.1927V3.63379Z" fill="#818181"></path><path d="M22.8305 3.63379V11.4658H22.1265L17.3965 5.16279V11.4658H16.5495V3.63379H17.2425L21.9725 9.93679V3.63379H22.8305Z" fill="#818181"></path><path d="M27.7046 11.5538C26.6779 11.5538 25.9006 11.2898 25.3726 10.7618C24.8519 10.2265 24.5916 9.43812 24.5916 8.39679V3.63379H25.4826V8.47379C25.4826 9.23646 25.6696 9.81212 26.0436 10.2008C26.4176 10.5895 26.9712 10.7838 27.7046 10.7838C28.4306 10.7838 28.9769 10.5895 29.3436 10.2008C29.7176 9.81212 29.9046 9.23646 29.9046 8.47379V3.63379H30.8066V8.39679C30.8066 9.43079 30.5426 10.2155 30.0146 10.7508C29.4866 11.2861 28.7166 11.5538 27.7046 11.5538Z" fill="#818181"></path></svg>